<?xml version="1.0" encoding="UTF-8"?> <svg xmlns="http://www.w3.org/2000/svg" width="84.068" height="56.725" viewBox="0 0 84.068 56.725"><g id="Group_315" data-name="Group 315" transform="translate(-68.595 -140.131)"><g id="Group_190" data-name="Group 190" transform="translate(68.595 140.131)"><path id="Path_9887" data-name="Path 9887" d="M140.442,171.241A16.654,16.654,0,0,1,129.885,175H85.541a16.686,16.686,0,0,1-12.43-5.534h0l2.877,3.605a16.671,16.671,0,0,0,12.467,5.6H132.8a16.654,16.654,0,0,0,10.557-3.758Z" transform="translate(-68.812 -141.538)" fill="#539ecf"></path><path id="Path_9888" data-name="Path 9888" d="M153.36,175.051h0a14.215,14.215,0,0,1-9.525-3.721L146.748,175a14.835,14.835,0,0,0,5.437,3.1,13.714,13.714,0,0,0,4.088.625Z" transform="translate(-72.205 -141.628)" fill="#ff443b"></path><path id="Path_9889" data-name="Path 9889" d="M153.724,169.542a51.4,51.4,0,0,1-.679-8.693A16.629,16.629,0,0,0,149.9,151.1l-3.427-4.376-.007,0a16.656,16.656,0,0,1,3.671,10.452c0,12.222,3.353,16.694,3.353,16.694l2.912,3.672s-1.695-2.285-2.674-8" transform="translate(-72.331 -140.447)" fill="#ffb351"></path><path id="Path_9890" data-name="Path 9890" d="M149.75,173.554s-3.353-4.472-3.353-16.695a16.729,16.729,0,0,0-16.729-16.729H85.325a16.73,16.73,0,1,0,0,33.46h44.343a16.654,16.654,0,0,0,10.557-3.758,14.215,14.215,0,0,0,9.525,3.721" transform="translate(-68.595 -140.131)" fill="#005191"></path><path id="Path_9891" data-name="Path 9891" d="M99.312,165.827H87.5v-2.558l5.443-5.723q2.012-2.289,2.012-3.64a2.528,2.528,0,0,0-.477-1.662,1.7,1.7,0,0,0-1.383-.571,1.722,1.722,0,0,0-1.454.763,3.128,3.128,0,0,0-.558,1.9H87.148a5.553,5.553,0,0,1,.779-2.878A5.46,5.46,0,0,1,90.09,149.4a6.416,6.416,0,0,1,3.093-.744,6.327,6.327,0,0,1,4.228,1.267,4.526,4.526,0,0,1,1.482,3.64,5.288,5.288,0,0,1-.372,1.948,8.489,8.489,0,0,1-1.157,1.989,29.163,29.163,0,0,1-2.53,2.786L92.648,162.8h6.664Z" transform="translate(-69.485 -140.54)" fill="#fff"></path><path id="Path_9892" data-name="Path 9892" d="M113.931,165.84H110V153.327l-3.86,1.128v-2.978l7.431-2.569h.36Z" transform="translate(-70.396 -140.552)" fill="#fff"></path><path id="Path_9893" data-name="Path 9893" d="M130.53,165.84H126.6V153.327l-3.86,1.128v-2.978l7.43-2.569h.361Z" transform="translate(-71.193 -140.552)" fill="#fff"></path><path id="Path_9894" data-name="Path 9894" d="M104.173,161.2h0a1.535,1.535,0,1,1,1.535-1.535,1.535,1.535,0,0,1-1.535,1.535" transform="translate(-70.228 -140.994)" fill="#fff"></path><path id="Path_9895" data-name="Path 9895" d="M119.926,161.2h0a1.535,1.535,0,1,1,1.535-1.535,1.535,1.535,0,0,1-1.535,1.535" transform="translate(-70.984 -140.994)" fill="#fff"></path></g><g id="Group_191" data-name="Group 191" transform="translate(82.143 183.405)"><path id="Path_9896" data-name="Path 9896" d="M101.121,182.384l2.552,7.2,2.536-7.2h2.685v9.923h-2.052v-2.713l.2-4.683-2.679,7.4h-1.405l-2.671-7.388.2,4.675v2.713H98.45v-9.923Z" transform="translate(-98.45 -181.837)" fill="#fff"></path><path id="Path_9897" data-name="Path 9897" d="M108.948,191.107a2.256,2.256,0,0,1-.2-.661,2.383,2.383,0,0,1-1.861.8,2.623,2.623,0,0,1-1.8-.625,2.018,2.018,0,0,1-.712-1.582,2.085,2.085,0,0,1,.868-1.8,4.287,4.287,0,0,1,2.514-.635h.906v-.422a1.216,1.216,0,0,0-.263-.818,1.029,1.029,0,0,0-.828-.307,1.168,1.168,0,0,0-.78.239.806.806,0,0,0-.283.653h-1.97a1.967,1.967,0,0,1,.4-1.184,2.6,2.6,0,0,1,1.117-.856,4.074,4.074,0,0,1,1.624-.311,3.226,3.226,0,0,1,2.163.685,2.4,2.4,0,0,1,.8,1.926v3.2a3.544,3.544,0,0,0,.293,1.588v.115Zm-1.628-1.369a1.7,1.7,0,0,0,.8-.2,1.269,1.269,0,0,0,.545-.521v-1.268h-.736q-1.478,0-1.574,1.023l-.006.115a.789.789,0,0,0,.259.607A1,1,0,0,0,107.32,189.738Z" transform="translate(-92.576 -180.637)" fill="#fff"></path><path id="Path_9898" data-name="Path 9898" d="M112.434,185.58a5.132,5.132,0,0,0-.709-.056,1.443,1.443,0,0,0-1.465.756v4.826h-1.97v-7.374h1.861l.054.878a1.827,1.827,0,0,1,1.644-1.015,2.048,2.048,0,0,1,.613.09Z" transform="translate(-88.706 -180.637)" fill="#fff"></path><path id="Path_9899" data-name="Path 9899" d="M113.967,188.251l1.365-4.586h2.112l-2.966,8.518-.163.39a2.248,2.248,0,0,1-2.181,1.445,3.136,3.136,0,0,1-.872-.129V192.4l.3.006a1.619,1.619,0,0,0,.836-.171,1.114,1.114,0,0,0,.434-.565l.231-.607-2.583-7.394h2.12Z" transform="translate(-86.539 -180.568)" fill="#fff"></path><path id="Path_9900" data-name="Path 9900" d="M116.4,192.58H114.42V182.109H116.4Z" transform="translate(-82.635 -182.109)" fill="#fff"></path><path id="Path_9901" data-name="Path 9901" d="M120.647,191.107a2.258,2.258,0,0,1-.2-.661,2.38,2.38,0,0,1-1.861.8,2.627,2.627,0,0,1-1.8-.625,2.018,2.018,0,0,1-.713-1.582,2.086,2.086,0,0,1,.87-1.8,4.28,4.28,0,0,1,2.512-.635h.906v-.422a1.226,1.226,0,0,0-.261-.818,1.032,1.032,0,0,0-.828-.307,1.177,1.177,0,0,0-.782.239.806.806,0,0,0-.283.653h-1.97a1.967,1.967,0,0,1,.4-1.184,2.614,2.614,0,0,1,1.117-.856,4.087,4.087,0,0,1,1.624-.311,3.222,3.222,0,0,1,2.163.685,2.4,2.4,0,0,1,.8,1.926v3.2a3.521,3.521,0,0,0,.291,1.588v.115Zm-1.628-1.369a1.7,1.7,0,0,0,.8-.2,1.269,1.269,0,0,0,.545-.521v-1.268h-.736q-1.478,0-1.574,1.023l-.006.115a.789.789,0,0,0,.259.607A1,1,0,0,0,119.019,189.738Z" transform="translate(-80.99 -180.637)" fill="#fff"></path><path id="Path_9902" data-name="Path 9902" d="M121.821,183.733l.062.852A2.578,2.578,0,0,1,124,183.6a2.134,2.134,0,0,1,1.743.689,3.21,3.21,0,0,1,.587,2.058v4.765h-1.97V186.39a1.281,1.281,0,0,0-.273-.91,1.218,1.218,0,0,0-.908-.283,1.355,1.355,0,0,0-1.246.709v5.2h-1.97v-7.374Z" transform="translate(-77.141 -180.637)" fill="#fff"></path><path id="Path_9903" data-name="Path 9903" d="M123.763,188.838a4.442,4.442,0,0,1,.772-2.747,2.512,2.512,0,0,1,2.118-1.023,2.254,2.254,0,0,1,1.779.8v-3.764h1.976V192.58h-1.779l-.1-.784a2.312,2.312,0,0,1-1.895.92,2.5,2.5,0,0,1-2.09-1.025A4.592,4.592,0,0,1,123.763,188.838Zm1.968.145a2.914,2.914,0,0,0,.362,1.592,1.178,1.178,0,0,0,1.049.553,1.323,1.323,0,0,0,1.29-.772v-2.914a1.3,1.3,0,0,0-1.276-.772Q125.732,186.671,125.731,188.983Z" transform="translate(-73.383 -182.109)" fill="#fff"></path></g></g></svg> 